<svg width="100%" height="100%" viewBox="0 0 1280 720" fill="none" xmlns="http://www.w3.org/2000/svg">
<g id="Group 1">
<g id="Group 2">
<path id="Rectangle 1" d="M0 0H216V720H0V0Z" fill="white"/>
<g id="Group 3">
<path id="Rectangle 2" d="M16 120H200C204.418 120 208 123.582 208 128V168C208 172.418 204.418 176 200 176H16C11.5817 176 8 172.418 8 168V128C8 123.582 11.5817 120 16 120Z" fill="#FDE8E8"/>
<path id="Vector" d="M35.3333 148H46M35.3333 142.667H46M35.3333 153.333H46M35.3333 142.667C35.3333 141.253 35.8952 139.897 36.8954 138.897C37.8956 137.897 39.2521 137.334 40.6666 137.334C42.0811 137.334 43.4375 137.897 44.4377 138.897C45.4379 139.897 45.9998 141.253 45.9998 142.667M35.3333 142.667V148C35.3333 149.414 35.8952 150.771 36.8954 151.771C37.8956 152.771 39.2521 153.333 40.6666 153.333C42.0811 153.333 43.4375 152.771 44.4377 151.771C45.4379 150.771 45.9998 149.414 45.9998 148V142.667M35.3333 153.333V156C35.3333 156.707 35.6142 157.385 36.1143 157.886C36.6144 158.386 37.2927 158.667 38 158.667H43.3333C44.0405 158.667 44.7189 158.386 45.219 157.886C45.7191 157.385 46 156.707 46 156V153.333M38 148V153.333M43.3333 148V153.333" stroke="#FA5252" stroke-width="2" stroke-linecap="round" stroke-linejoin="round"/>
<g id="Group 4">
<path id="Vector_2" d="M35.3333 140H38C39.4145 140 40.771 140.562 41.7712 141.562C42.7714 142.563 43.3333 143.919 43.3333 145.333V148M35.3333 140V145.333C35.3333 146.748 35.8952 148.104 36.8954 149.105C37.8956 150.105 39.2521 150.667 40.6666 150.667H46M35.3333 140H38C39.4145 140 40.771 140.562 41.7712 141.562C42.7714 142.563 43.3333 143.919 43.3333 145.333M35.3333 140H38C39.4145 140 40.771 140.562 41.7712 141.562C42.7714 142.563 43.3333 143.919 43.3333 145.333V148M35.3333 140V145.333C35.3333 146.748 35.8952 148.104 36.8954 149.105C37.8956 150.105 39.2521 150.667 40.6666 150.667H46M43.3333 145.333C43.3333 144.626 43.6142 143.948 44.1143 143.448C44.6144 142.947 45.2927 142.666 46 142.666C46.7072 142.666 47.3855 142.947 47.8856 143.448C48.3857 143.948 48.6666 144.626 48.6666 145.333V150.667C48.6666 151.374 48.3857 152.052 47.8856 152.552C47.3855 153.053 46.7072 153.333 46 153.333C45.2927 153.333 44.6144 153.053 44.1143 152.552C43.6142 152.052 43.3333 151.374 43.3333 150.667" stroke="#FA5252" stroke-width="2" stroke-linecap="round" stroke-linejoin="round"/>
</g>
<path id="Vector_3" d="M188 146C188 144.945 187.794 143.899 187.394 142.923C186.993 141.947 186.406 141.063 185.664 140.313C184.922 139.563 184.046 138.97 183.082 138.565C182.117 138.16 181.083 137.952 180.041 137.952C178.999 137.952 177.965 138.16 177.001 138.565C176.036 138.97 175.16 139.563 174.418 140.313C173.676 141.063 173.089 141.947 172.688 142.923C172.288 143.899 172.082 144.945 172.082 146C172.082 148.121 172.919 150.154 174.418 151.653C175.916 153.151 177.95 153.993 180.072 153.993C182.195 153.993 184.228 153.151 185.726 151.653C187.225 150.154 188.062 148.121 188.062 146" fill="#FA5252"/>
</g>
<g id="Group 5">
<path id="Vector_4" d="M32 208L42.6667 218.667L32 229.333M42.6667 218.667H34.6667C32.1913 218.667 29.8196 219.65 28.0689 221.401C26.3183 223.152 25.3346 225.523 25.3346 228V234.667" stroke="#495057" stroke-width="2" stroke-linecap="round" stroke-linejoin="round"/>
</g>
<g id="Group 6">
<g id="Group 7">
<path id="Vector_5" d="M40 269.333H37.3333C36.6261 269.333 35.9478 269.614 35.4477 270.114C34.9476 270.615 34.6667 271.293 34.6667 272V274.667C34.6667 275.374 34.9476 276.052 35.4477 276.552C35.9478 277.053 36.6261 277.333 37.3333 277.333H40C40.7072 277.333 41.3855 277.053 41.8856 276.552C42.3857 276.052 42.6666 275.374 42.6666 274.667V272C42.6666 271.293 42.3857 270.615 41.8856 270.114C41.3855 269.614 40.7072 269.333 40 269.333Z" stroke="#495057" stroke-width="2" stroke-linecap="round" stroke-linejoin="round"/>
<path id="Vector_6" d="M40 282.666H37.3333C36.6261 282.666 35.9478 282.947 35.4477 283.448C34.9476 283.948 34.6667 284.626 34.6667 285.333V288C34.6667 288.707 34.9476 289.385 35.4477 289.885C35.9478 290.385 36.6261 290.666 37.3333 290.666H40C40.7072 290.666 41.3855 290.385 41.8856 289.885C42.3857 289.385 42.6666 288.707 42.6666 288V285.333C42.6666 284.626 42.3857 283.948 41.8856 283.448C41.3855 282.947 40.7072 282.666 40 282.666Z" stroke="#495057" stroke-width="2" stroke-linecap="round" stroke-linejoin="round"/>
<path id="Vector_7" d="M29.3333 269.333H26.6667C25.9594 269.333 25.2811 269.614 24.781 270.114C24.281 270.615 24 271.293 24 272V274.667C24 275.374 24.281 276.052 24.781 276.552C25.2811 277.053 25.9594 277.333 26.6667 277.333H29.3333C30.0406 277.333 30.7189 277.053 31.2189 276.552C31.719 276.052 32 275.374 32 274.667V272C32 271.293 31.719 270.615 31.2189 270.114C30.7189 269.614 30.0406 269.333 29.3333 269.333Z" stroke="#495057" stroke-width="2" stroke-linecap="round" stroke-linejoin="round"/>
<path id="Vector_8" d="M29.3333 282.666H26.6667C25.9594 282.666 25.2811 282.947 24.781 283.448C24.281 283.948 24 284.626 24 285.333V288C24 288.707 24.281 289.385 24.781 289.885C25.2811 290.385 25.9594 290.666 26.6667 290.666H29.3333C30.0406 290.666 30.7189 290.385 31.2189 289.885C31.719 289.385 32 288.707 32 288V285.333C32 284.626 31.719 283.948 31.2189 283.448C30.7189 282.947 30.0406 282.666 29.3333 282.666Z" stroke="#495057" stroke-width="2" stroke-linecap="round" stroke-linejoin="round"/>
</g>
</g>
<g id="Group 8">
<g id="Group 9">
<path id="Vector_9" d="M38.6667 333.333C38.6667 334.04 38.9476 334.719 39.4477 335.219C39.9478 335.719 40.6261 336 41.3333 336C42.0406 336 42.7189 335.719 43.2189 335.219C43.719 334.719 44 334.04 44 333.333M36 333.333C36 336.163 37.1238 338.876 39.1245 340.877C41.1252 342.878 43.8387 344.001 46.668 344.001H53.3333" stroke="#495057" stroke-width="2" stroke-linecap="round" stroke-linejoin="round"/>
<path id="Vector_10" d="M53.3333 344H46.6667C43.8374 344 41.1238 342.877 39.1232 340.876C37.1225 338.875 36 336.162 36 333.333V328M53.3333 344V336C53.3333 333.878 52.4905 331.844 50.9902 330.343C49.4899 328.843 47.4551 328 45.3333 328H36M53.3333 344H56C57.4145 344 58.771 344.562 59.7712 345.562C60.7714 346.563 61.3333 347.919 61.3333 349.333M53.3333 344V349.333C53.3333 350.748 53.8952 352.104 54.8954 353.105C55.8956 354.105 57.2521 354.667 58.6666 354.667H61.3333M45.3333 328C45.3333 327.293 45.6143 326.614 46.1144 326.114C46.6145 325.614 47.2927 325.333 48 325.333C48.7072 325.333 49.3855 325.614 49.8856 326.114C50.3857 326.614 50.6666 327.293 50.6666 328V333.333C50.6666 334.04 50.3857 334.719 49.8856 335.219C49.3855 335.719 48.7072 336 48 336C47.2927 336 46.6145 335.719 46.1144 335.219C45.6143 334.719 45.3333 334.04 45.3333 333.333" stroke="#495057" stroke-width="2" stroke-linecap="round" stroke-linejoin="round"/>
<path id="Vector_11" d="M48 333.333V336M50.6667 333.333V336" stroke="#495057" stroke-width="2" stroke-linecap="round" stroke-linejoin="round"/>
</g>
</g>
<g id="Group 10">
<g id="Group 11">
<path id="Vector_12" d="M48 412L40 400L32 412M48 412L50.2133 415.32C50.5002 415.75 50.8658 416.116 51.2962 416.403C51.7265 416.689 52.216 416.891 52.744 417.001C53.2719 417.111 53.831 417.127 54.398 417.047C54.965 416.967 55.5322 416.792 56.0759 416.53C56.6196 416.268 57.133 415.923 57.5949 415.508C58.0568 415.094 58.4611 414.616 58.791 414.095C59.121 413.573 59.3719 413.015 59.5332 412.444C59.6946 411.874 59.7639 411.3 59.7373 410.747C59.7108 410.193 59.5888 409.667 59.3765 409.191C59.1642 408.715 58.864 408.296 58.4866 407.952C58.1091 407.607 57.6594 407.341 57.155 407.165C56.6507 406.989 56.0986 406.905 55.5191 406.917C54.9397 406.93 54.3408 407.038 53.7474 407.237C53.1539 407.436 52.5741 407.724 52.032 408.089L40 400M32 412L29.7867 415.32C29.4998 415.75 29.1342 416.116 28.7038 416.403C28.2735 416.689 27.784 416.891 27.256 417.001C26.7281 417.111 26.169 417.127 25.602 417.047C25.035 416.967 24.4678 416.792 23.9241 416.53C23.3804 416.268 22.867 415.923 22.4051 415.508C21.9432 415.094 21.5389 414.616 21.209 414.095C20.879 413.573 20.6281 413.015 20.4668 412.444C20.3054 411.874 20.2361 411.3 20.2627 410.747C20.2892 410.193 20.4112 409.667 20.6235 409.191C20.8358 408.715 21.136 408.296 21.5134 407.952C21.8909 407.607 22.3406 407.341 22.845 407.165C23.3493 406.989 23.9014 406.905 24.4809 406.917C25.0603 406.93 25.6592 407.038 26.2526 407.237C26.8461 407.436 27.4259 407.724 27.968 408.089L40 400M40 400V386.667M32 412V426.667M48 412V426.667" stroke="#495057" stroke-width="2" stroke-linecap="round" stroke-linejoin="round"/>
</g>
</g>
<g id="Group 12">
<g id="Group 13">
<path id="Vector_13" d="M34.6667 458.667H37.3333M34.6667 458.667H45.3333M34.6667 458.667C33.2522 458.667 31.8957 459.229 30.8954 460.229C29.8952 461.229 29.3333 462.586 29.3333 464V480C29.3333 481.414 29.8952 482.771 30.8954 483.771C31.8957 484.772 33.2522 485.333 34.6667 485.333H45.3333C46.7478 485.333 48.1043 484.772 49.1046 483.771C50.1048 482.771 50.6667 481.414 50.6667 480V464C50.6667 462.586 50.1048 461.229 49.1046 460.229C48.1043 459.229 46.7478 458.667 45.3333 458.667M34.6667 458.667V454.667C34.6667 453.606 35.0881 452.588 35.8382 451.838C36.5884 451.088 37.6058 450.667 38.6667 450.667H41.3333C42.3942 450.667 43.4116 451.088 44.1618 451.838C44.9119 452.588 45.3333 453.606 45.3333 454.667V458.667M45.3333 458.667H42.6667M37.3333 458.667V454.667C37.3333 454.313 37.4738 453.974 37.7239 453.724C37.9739 453.474 38.313 453.333 38.6667 453.333H41.3333C41.687 453.333 42.0261 453.474 42.2761 453.724C42.5262 453.974 42.6667 454.313 42.6667 454.667V458.667M37.3333 458.667H42.6667" stroke="#495057" stroke-width="2" stroke-linecap="round" stroke-linejoin="round"/>
<path id="Vector_14" d="M40 469.333V472M40 474.667H40.0133" stroke="#495057" stroke-width="2" stroke-linecap="round" stroke-linejoin="round"/>
</g>
</g>
<g id="Group 14">
<g id="Group 15">
<path id="Vector_15" d="M42.6667 512H45.3333C46.0406 512 46.7189 512.281 47.2189 512.781C47.719 513.281 48 513.959 48 514.667V517.333M42.6667 512H40C39.2928 512 38.6145 512.281 38.1144 512.781C37.6143 513.281 37.3333 513.959 37.3333 514.667V517.333M42.6667 512V514.667M37.3333 514.667V522.667M37.3333 514.667H29.3333C27.9189 514.667 26.5623 515.229 25.5621 516.229C24.5619 517.229 24 518.586 24 520V530.667C24 532.081 24.5619 533.438 25.5621 534.438C26.5623 535.438 27.9189 536 29.3333 536H50.6667C52.0812 536 53.4377 535.438 54.4379 534.438C55.4381 533.438 56 532.081 56 530.667V520C56 518.586 55.4381 517.229 54.4379 516.229C53.4377 515.229 52.0812 514.667 50.6667 514.667H42.6667M48 517.333V522.667M48 517.333H42.6667M37.3333 517.333H42.6667M24 528H56" stroke="#495057" stroke-width="2" stroke-linecap="round" stroke-linejoin="round"/>
</g>
</g>
<g id="Group 16">
<g id="Group 17">
<path id="Vector_16" d="M25.3333 597.333H40M25.3333 597.333H54.6666M25.3333 597.333C26.3644 595.787 27.9207 594.64 29.714 594.103C31.5073 593.566 33.4155 593.675 35.0867 594.409C36.7578 595.144 38.0777 596.454 38.8009 598.097C39.5241 599.74 39.6015 601.605 39.0187 603.347C38.4358 605.088 37.2329 606.588 35.6334 607.566C34.0339 608.544 32.146 608.933 30.3166 608.661C28.4871 608.389 26.8403 607.473 25.6838 606.082C24.5273 604.692 23.94 602.921 24.0304 601.101C24.1208 599.282 24.8829 597.536 26.1766 596.189C27.4704 594.843 29.2084 594.007 31.0667 593.833V584H28V589.333C28 590.04 27.719 590.719 27.219 591.219C26.7189 591.719 26.0406 592 25.3333 592H24C22.5855 592 21.229 592.562 20.2288 593.562C19.2286 594.563 18.6667 595.919 18.6667 597.333V600H21.3333M54.6666 597.333C53.6356 595.787 52.0793 594.64 50.286 594.103C48.4927 593.566 46.5845 593.675 44.9133 594.409C43.2422 595.144 41.9223 596.454 41.1991 598.097C40.4759 599.74 40.3985 601.605 40.9813 603.347C41.5642 605.088 42.7671 606.588 44.3666 607.566C45.9661 608.544 47.854 608.933 49.6834 608.661C51.5129 608.389 53.1597 607.473 54.3162 606.082C55.4727 604.692 56.06 602.921 55.9696 601.101C55.8792 599.282 55.1171 597.536 53.8234 596.189C52.5296 594.843 50.7916 594.007 48.9333 593.833V584H52V589.333C52 590.04 52.281 590.719 52.781 591.219C53.2811 591.719 53.9594 592 54.6666 592H56C57.4145 592 58.771 592.562 59.7712 593.562C60.7714 594.563 61.3333 595.919 61.3333 597.333V600H58.6667M40 597.333V584M40 584H36M40 584H44" stroke="#495057" stroke-width="2" stroke-linecap="round" stroke-linejoin="round"/>
</g>
</g>
<path id="Vector_17" d="M36 645.333L28 653.333L36 661.333M30.6667 653.333H42.6667C44.7884 653.333 46.8233 654.176 48.3235 655.676C49.8238 657.177 50.6667 659.212 50.6667 661.333V669.333M50.6667 653.333C50.6667 651.212 49.8238 649.177 48.3235 647.676C46.8233 646.176 44.7884 645.333 42.6667 645.333V645.333M50.6667 661.333C50.6667 663.455 51.5095 665.489 53.0098 666.99C54.51 668.49 56.545 669.333 58.6667 669.333V669.333" stroke="#495057" stroke-width="2" stroke-linecap="round" stroke-linejoin="round"/>
</g>
<rect id="Rectangle 3" x="240" y="120" width="320" height="160" rx="16" fill="url(#paint0_linear_13_854)"/>
<g id="Group 18">
<path id="Vector_18" d="M494.667 200C503.506 200 510.667 192.838 510.667 184C510.667 175.162 503.506 168 494.667 168C485.827 168 478.667 175.162 478.667 184C478.667 192.838 485.827 200 494.667 200Z" stroke="white" stroke-opacity="0.2" stroke-width="4" stroke-linecap="round" stroke-linejoin="round"/>
<path id="Vector_19" d="M494.667 184V192M494.667 192L502.667 200M494.667 192L486.667 200" stroke="white" stroke-opacity="0.2" stroke-width="4" stroke-linecap="round" stroke-linejoin="round"/>
</g>
<rect id="Rectangle 4" x="592" y="120" width="320" height="160" rx="16" fill="url(#paint1_linear_13_854)"/>
<g id="Group 19">
<path id="Vector_20" d="M838.667 184V232M854.667 184V232M862.667 216C862.667 210.36 861.93 204.741 860.47 199.31C859.01 193.879 856.841 188.682 854.011 185.852C851.182 183.022 847.738 182.603 842.59 182.87C837.441 183.137 830.667 184.09 830.667 184V216H862.667ZM838.667 216V232M846.667 216V232M830.667 232V253.333C830.667 254.033 830.805 254.727 831.073 255.374C831.341 256.021 831.734 256.609 832.229 257.104C832.724 257.599 833.311 257.992 833.959 258.259C834.606 258.528 835.299 258.667 836 258.667H841.333C842.035 258.667 842.728 258.528 843.375 258.259C844.023 257.992 844.61 257.599 845.105 257.104C845.6 256.609 845.993 256.021 846.261 255.374C846.529 254.727 846.667 254.033 846.667 253.333V248M846.667 232V248M862.667 232V253.333C862.667 254.033 862.805 254.727 863.073 255.374C863.341 256.021 863.734 256.609 864.229 257.104C864.724 257.599 865.311 257.992 865.959 258.259C866.606 258.528 867.299 258.667 868 258.667H873.333C874.035 258.667 874.728 258.528 875.375 258.259C876.023 257.992 876.61 257.599 877.105 257.104C877.6 256.609 877.993 256.021 878.261 255.374C878.529 254.727 878.667 254.033 878.667 253.333V232H862.667Z" stroke="white" stroke-opacity="0.2" stroke-width="4" stroke-linecap="round" stroke-linejoin="round"/>
</g>
<rect id="Rectangle 5" x="944" y="120" width="320" height="160" rx="16" fill="url(#paint2_linear_13_854)"/>
<g id="Group 20">
<path id="Vector_21" d="M1230.67 233.333L1206.67 257.333L1194.67 245.333M1245.33 233.333C1245.33 256.89 1226.22 276 1202.67 276C1179.11 276 1160 256.89 1160 233.333C1160 209.777 1179.11 190.667 1202.67 190.667C1226.22 190.667 1245.33 209.777 1245.33 233.333Z" stroke="white" stroke-opacity="0.2" stroke-width="4" stroke-linecap="round" stroke-linejoin="round"/>
</g>
<rect id="Rectangle 6" x="1296" y="120" width="320" height="160" rx="16" fill="url(#paint3_linear_13_854)"/>
<g id="Group 21">
<path id="Vector_22" d="M1588 200C1588 202.101 1587.59 204.182 1586.78 206.123C1585.98 208.065 1584.8 209.831 1583.31 211.316C1581.83 212.801 1580.06 213.979 1578.12 214.783C1576.18 215.587 1574.1 216 1572 216C1567.76 216 1563.69 214.317 1560.69 211.319C1557.68 208.322 1556 204.256 1556 200.021C1556.01 195.786 1557.69 191.723 1560.68 188.725C1563.68 185.728 1567.75 184.042 1571.98 184.042C1576.22 184.042 1580.28 185.728 1583.28 188.725C1586.27 191.723 1587.95 195.786 1587.96 200.021L1588 200ZM1572 216V229.333C1572 233.568 1570.32 237.631 1567.32 240.629C1564.32 243.626 1560.26 245.312 1556.02 245.312H1553.35C1552.64 245.312 1551.95 245.451 1551.29 245.72C1550.64 245.988 1550.03 246.381 1549.52 246.882C1549.02 247.384 1548.62 247.98 1548.35 248.637C1548.08 249.293 1547.94 249.998 1547.94 250.712V274.621C1547.94 275.335 1548.08 276.04 1548.35 276.696C1548.62 277.353 1549.02 277.949 1549.52 278.451C1550.03 278.952 1550.64 279.345 1551.29 279.613C1551.95 279.882 1552.64 280.021 1553.35 280.021H1569.31C1570.02 280.021 1570.71 279.882 1571.37 279.613C1572.02 279.345 1572.63 278.952 1573.13 278.451C1573.64 277.949 1574.03 277.353 1574.31 276.696C1574.58 276.04 1574.72 275.335 1574.72 274.621V250.712C1574.72 249.998 1574.58 249.293 1574.31 248.637C1574.03 247.98 1573.64 247.384 1573.13 246.882C1572.63 246.381 1572.02 245.988 1571.37 245.72C1570.71 245.451 1570.02 245.312 1569.31 245.312M1548 266.667H1574.67" stroke="white" stroke-opacity="0.2" stroke-width="4" stroke-linecap="round" stroke-linejoin="round"/>
</g>
<g id="Group 22">
<path id="Rectangle 10" d="M240 344H816V597.333H240V344Z" fill="white"/>
<g id="Group 23">
<path id="Rectangle 9" d="M264 344C264 339.757 267.439 336.317 271.683 336.317H784.317C788.561 336.317 792 339.757 792 344V392C792 396.243 788.561 399.683 784.317 399.683H271.683C267.439 399.683 264 396.243 264 392V344Z" fill="#F8F9FA"/>
<g id="Group 24">
<path id="Vector_23" d="M504 368H514.667M504 362.667H514.667M504 373.333H514.667M504 362.667C504 361.253 504.562 359.897 505.562 358.897C506.563 357.897 507.919 357.334 509.333 357.334C510.748 357.334 512.105 357.897 513.105 358.897C514.105 359.897 514.667 361.253 514.667 362.667M504 362.667V368C504 369.414 504.562 370.771 505.562 371.771C506.563 372.771 507.919 373.333 509.333 373.333C510.748 373.333 512.105 372.771 513.105 371.771C514.105 370.771 514.667 369.414 514.667 368V362.667M504 373.333V376C504 376.707 504.281 377.385 504.781 377.886C505.281 378.386 505.959 378.667 506.667 378.667H512C512.707 378.667 513.386 378.386 513.886 377.886C514.386 377.385 514.667 376.707 514.667 376V373.333M506.667 368V373.333M512 368V373.333" stroke="#343A40" stroke-width="2" stroke-linecap="round" stroke-linejoin="round"/>
<g id="Group 25">
<path id="Vector_24" d="M504 360H506.667C508.081 360 509.438 360.562 510.438 361.562C511.438 362.563 512 363.919 512 365.333V368M504 360V365.333C504 366.748 504.562 368.104 505.562 369.105C506.563 370.105 507.919 370.667 509.333 370.667H514.667M504 360H506.667C508.081 360 509.438 360.562 510.438 361.562C511.438 362.563 512 363.919 512 365.333M504 360H506.667C508.081 360 509.438 360.562 510.438 361.562C511.438 362.563 512 363.919 512 365.333V368M504 360V365.333C504 366.748 504.562 368.104 505.562 369.105C506.563 370.105 507.919 370.667 509.333 370.667H514.667M512 365.333C512 364.626 512.281 363.948 512.781 363.448C513.281 362.947 513.959 362.666 514.667 362.666C515.374 362.666 516.052 362.947 516.552 363.448C517.053 363.948 517.333 364.626 517.333 365.333V370.667C517.333 371.374 517.053 372.052 516.552 372.552C516.052 373.053 515.374 373.333 514.667 373.333C513.959 373.333 513.281 373.053 512.781 372.552C512.281 372.052 512 371.374 512 370.667" stroke="#343A40" stroke-width="2" stroke-linecap="round" stroke-linejoin="round"/>
</g>
</g>
<path id="Vector_25" d="M280 368C280 369.414 280.562 370.771 281.562 371.771C282.563 372.771 283.919 373.333 285.333 373.333H328C329.414 373.333 330.771 372.771 331.771 371.771C332.771 370.771 333.333 369.414 333.333 368C333.333 366.586 332.771 365.229 331.771 364.229C330.771 363.229 329.414 362.667 328 362.667H285.333C283.919 362.667 282.563 363.229 281.562 364.229C280.562 365.229 280 366.586 280 368Z" stroke="#343A40" stroke-width="2" stroke-linecap="round" stroke-linejoin="round"/>
<path id="Vector_26" d="M280 368H306.667" stroke="#343A40" stroke-width="2" stroke-linecap="round" stroke-linejoin="round"/>
<path id="Vector_27" d="M280 368V389.333" stroke="#343A40" stroke-width="2" stroke-linecap="round" stroke-linejoin="round"/>
</g>
<g id="Group 26">
<g id="Group 27">
<path id="Vector_28" d="M280 416C280 417.414 280.562 418.771 281.562 419.771C282.563 420.771 283.919 421.333 285.333 421.333H328C329.414 421.333 330.771 420.771 331.771 419.771C332.771 418.771 333.333 417.414 333.333 416C333.333 414.586 332.771 413.229 331.771 412.229C330.771 411.229 329.414 410.667 328 410.667H285.333C283.919 410.667 282.563 411.229 281.562 412.229C280.562 413.229 280 414.586 280 416Z" stroke="#343A40" stroke-width="2" stroke-linecap="round" stroke-linejoin="round"/>
<path id="Vector_29" d="M280 416H306.667" stroke="#343A40" stroke-width="2" stroke-linecap="round" stroke-linejoin="round"/>
<path id="Vector_30" d="M280 416V437.333" stroke="#343A40" stroke-width="2" stroke-linecap="round" stroke-linejoin="round"/>
</g>
</g>
<g id="Group 28">
<g id="Group 29">
<path id="Vector_31" d="M280 464C280 465.414 280.562 466.771 281.562 467.771C282.563 468.771 283.919 469.333 285.333 469.333H328C329.414 469.333 330.771 468.771 331.771 467.771C332.771 466.771 333.333 465.414 333.333 464C333.333 462.586 332.771 461.229 331.771 460.229C330.771 459.229 329.414 458.667 328 458.667H285.333C283.919 458.667 282.563 459.229 281.562 460.229C280.562 461.229 280 462.586 280 464Z" stroke="#343A40" stroke-width="2" stroke-linecap="round" stroke-linejoin="round"/>
<path id="Vector_32" d="M280 464H306.667" stroke="#343A40" stroke-width="2" stroke-linecap="round" stroke-linejoin="round"/>
<path id="Vector_33" d="M280 464V485.333" stroke="#343A40" stroke-width="2" stroke-linecap="round" stroke-linejoin="round"/>
</g>
</g>
<g id="Group 30">
<g id="Group 31">
<path id="Vector_34" d="M280 512C280 513.414 280.562 514.771 281.562 515.771C282.563 516.771 283.919 517.333 285.333 517.333H328C329.414 517.333 330.771 516.771 331.771 515.771C332.771 514.771 333.333 513.414 333.333 512C333.333 510.586 332.771 509.229 331.771 508.229C330.771 507.229 329.414 506.667 328 506.667H285.333C283.919 506.667 282.563 507.229 281.562 508.229C280.562 509.229 280 510.586 280 512Z" stroke="#343A40" stroke-width="2" stroke-linecap="round" stroke-linejoin="round"/>
<path id="Vector_35" d="M280 512H306.667" stroke="#343A40" stroke-width="2" stroke-linecap="round" stroke-linejoin="round"/>
<path id="Vector_36" d="M280 512V533.333" stroke="#343A40" stroke-width="2" stroke-linecap="round" stroke-linejoin="round"/>
</g>
</g>
<g id="Group 32">
<g id="Group 33">
<path id="Vector_37" d="M280 560C280 561.414 280.562 562.771 281.562 563.771C282.563 564.771 283.919 565.333 285.333 565.333H328C329.414 565.333 330.771 564.771 331.771 563.771C332.771 562.771 333.333 561.414 333.333 560C333.333 558.586 332.771 557.229 331.771 556.229C330.771 555.229 329.414 554.667 328 554.667H285.333C283.919 554.667 282.563 555.229 281.562 556.229C280.562 557.229 280 558.586 280 560Z" stroke="#343A40" stroke-width="2" stroke-linecap="round" stroke-linejoin="round"/>
<path id="Vector_38" d="M280 560H306.667" stroke="#343A40" stroke-width="2" stroke-linecap="round" stroke-linejoin="round"/>
<path id="Vector_39" d="M280 560V581.333" stroke="#343A40" stroke-width="2" stroke-linecap="round" stroke-linejoin="round"/>
</g>
</g>
<g id="Group 34">
<path id="Rectangle 11" d="M836 344H1640V597.333H836V344Z" fill="white"/>
<g id="Group 35">
<g id="Group 36">
<path id="Vector_40" d="M860 368C860 369.414 860.562 370.771 861.562 371.771C862.563 372.771 863.919 373.333 865.333 373.333H908C909.414 373.333 910.771 372.771 911.771 371.771C912.771 370.771 913.333 369.414 913.333 368C913.333 366.586 912.771 365.229 911.771 364.229C910.771 363.229 909.414 362.667 908 362.667H865.333C863.919 362.667 862.563 363.229 861.562 364.229C860.562 365.229 860 366.586 860 368Z" stroke="#343A40" stroke-width="2" stroke-linecap="round" stroke-linejoin="round"/>
<path id="Vector_41" d="M860 368H886.667" stroke="#343A40" stroke-width="2" stroke-linecap="round" stroke-linejoin="round"/>
<path id="Vector_42" d="M860 368V389.333" stroke="#343A40" stroke-width="2" stroke-linecap="round" stroke-linejoin="round"/>
</g>
</g>
<g id="Group 37">
<g id="Group 38">
<path id="Vector_43" d="M860 416C860 417.414 860.562 418.771 861.562 419.771C862.563 420.771 863.919 421.333 865.333 421.333H908C909.414 421.333 910.771 420.771 911.771 419.771C912.771 418.771 913.333 417.414 913.333 416C913.333 414.586 912.771 413.229 911.771 412.229C910.771 411.229 909.414 410.667 908 410.667H865.333C863.919 410.667 862.563 411.229 861.562 412.229C860.562 413.229 860 414.586 860 416Z" stroke="#343A40" stroke-width="2" stroke-linecap="round" stroke-linejoin="round"/>
<path id="Vector_44" d="M860 416H886.667" stroke="#343A40" stroke-width="2" stroke-linecap="round" stroke-linejoin="round"/>
<path id="Vector_45" d="M860 416V437.333" stroke="#343A40" stroke-width="2" stroke-linecap="round" stroke-linejoin="round"/>
</g>
</g>
<g id="Group 39">
<g id="Group 40">
<path id="Vector_46" d="M860 464C860 465.414 860.562 466.771 861.562 467.771C862.563 468.771 863.919 469.333 865.333 469.333H908C909.414 469.333 910.771 468.771 911.771 467.771C912.771 466.771 913.333 465.414 913.333 464C913.333 462.586 912.771 461.229 911.771 460.229C910.771 459.229 909.414 458.667 908 458.667H865.333C863.919 458.667 862.563 459.229 861.562 460.229C860.562 461.229 860 462.586 860 464Z" stroke="#343A40" stroke-width="2" stroke-linecap="round" stroke-linejoin="round"/>
<path id="Vector_47" d="M860 464H886.667" stroke="#343A40" stroke-width="2" stroke-linecap="round" stroke-linejoin="round"/>
<path id="Vector_48" d="M860 464V485.333" stroke="#343A40" stroke-width="2" stroke-linecap="round" stroke-linejoin="round"/>
</g>
</g>
<g id="Group 41">
<g id="Group 42">
<path id="Vector_49" d="M860 512C860 513.414 860.562 514.771 861.562 515.771C862.563 516.771 863.919 517.333 865.333 517.333H908C909.414 517.333 910.771 516.771 911.771 515.771C912.771 514.771 913.333 513.414 913.333 512C913.333 510.586 912.771 509.229 911.771 508.229C910.771 507.229 909.414 506.667 908 506.667H865.333C863.919 506.667 862.563 507.229 861.562 508.229C860.562 509.229 860 510.586 860 512Z" stroke="#343A40" stroke-width="2" stroke-linecap="round" stroke-linejoin="round"/>
<path id="Vector_50" d="M860 512H886.667" stroke="#343A40" stroke-width="2" stroke-linecap="round" stroke-linejoin="round"/>
<path id="Vector_51" d="M860 512V533.333" stroke="#343A40" stroke-width="2" stroke-linecap="round" stroke-linejoin="round"/>
</g>
</g>
<g id="Group 43">
<g id="Group 44">
<path id="Vector_52" d="M860 560C860 561.414 860.562 562.771 861.562 563.771C862.563 564.771 863.919 565.333 865.333 565.333H908C909.414 565.333 910.771 564.771 911.771 563.771C912.771 562.771 913.333 561.414 913.333 560C913.333 558.586 912.771 557.229 911.771 556.229C910.771 555.229 909.414 554.667 908 554.667H865.333C863.919 554.667 862.563 555.229 861.562 556.229C860.562 557.229 860 558.586 860 560Z" stroke="#343A40" stroke-width="2" stroke-linecap="round" stroke-linejoin="round"/>
<path id="Vector_53" d="M860 560H886.667" stroke="#343A40" stroke-width="2" stroke-linecap="round" stroke-linejoin="round"/>
<path id="Vector_54" d="M860 560V581.333" stroke="#343A40" stroke-width="2" stroke-linecap="round" stroke-linejoin="round"/>
</g>
</g>
<g id="Group 45">
<path id="Rectangle 13" d="M860 344C860 339.757 863.439 336.317 867.683 336.317H1608.32C1612.56 336.317 1616 339.757 1616 344V392C1616 396.243 1612.56 399.683 1608.32 399.683H867.683C863.439 399.683 860 396.243 860 392V344Z" fill="#F8F9FA"/>
<g id="Group 46">
<path id="Vector_55" d="M1133.33 376C1133.33 381.891 1128.56 386.667 1122.67 386.667C1116.77 386.667 1112 381.891 1112 376C1112 370.109 1116.77 365.333 1122.67 365.333C1128.56 365.333 1133.33 370.109 1133.33 376Z" stroke="#343A40" stroke-width="2" stroke-linecap="round" stroke-linejoin="round"/>
<path id="Vector_56" d="M1129.33 384L1138.67 393.333L1142.67 389.333L1133.33 380" stroke="#343A40" stroke-width="2" stroke-linecap="round" stroke-linejoin="round"/>
<path id="Vector_57" d="M1125.33 372L1120 377.333L1116 373.333" stroke="#343A40" stroke-width="2" stroke-linecap="round" stroke-linejoin="round"/>
</g>
<g id="Group 47">
<path id="Vector_58" d="M1133.33 368H1136C1137.41 368 1138.77 368.562 1139.77 369.562C1140.77 370.563 1141.33 371.919 1141.33 373.333M1133.33 368V373.333C1133.33 374.748 1133.9 376.104 1134.9 377.105C1135.9 378.105 1137.25 378.667 1138.67 378.667H1144M1133.33 368H1136C1137.41 368 1138.77 368.562 1139.77 369.562C1140.77 370.563 1141.33 371.919 1141.33 373.333M1133.33 368V373.333C1133.33 374.748 1133.9 376.104 1134.9 377.105C1135.9 378.105 1137.25 378.667 1138.67 378.667H1144M1141.33 373.333C1141.33 372.626 1141.61 371.948 1142.11 371.448C1142.61 370.947 1143.29 370.666 1144 370.666C1144.71 370.666 1145.39 370.947 1145.89 371.448C1146.39 371.948 1146.67 372.626 1146.67 373.333V378.667C1146.67 379.374 1146.39 380.052 1145.89 380.552C1145.39 381.053 1144.71 381.333 1144 381.333C1143.29 381.333 1142.61 381.053 1142.11 380.552C1141.61 380.052 1141.33 379.374 1141.33 378.667" stroke="#343A40" stroke-width="2" stroke-linecap="round" stroke-linejoin="round"/>
</g>
<g id="Group 48">
<path id="Vector_59" d="M1133.33 376H1144M1133.33 370.667H1144M1133.33 381.333H1144M1133.33 370.667C1133.33 369.253 1133.9 367.897 1134.9 366.897C1135.9 365.897 1137.25 365.334 1138.67 365.334C1140.08 365.334 1141.44 365.897 1142.44 366.897C1143.44 367.897 1144 369.253 1144 370.667M1133.33 370.667V376C1133.33 377.414 1133.9 378.771 1134.9 379.771C1135.9 380.771 1137.25 381.333 1138.67 381.333C1140.08 381.333 1141.44 380.771 1142.44 379.771C1143.44 378.771 1144 377.414 1144 376V370.667M1133.33 381.333V384C1133.33 384.707 1133.61 385.385 1134.11 385.886C1134.61 386.386 1135.29 386.667 1136 386.667H1141.33C1142.04 386.667 1142.72 386.386 1143.22 385.886C1143.72 385.385 1144 384.707 1144 384V381.333M1136 376V381.333M1141.33 376V381.333" stroke="#343A40" stroke-width="2" stroke-linecap="round" stroke-linejoin="round"/>
</g>
</g>
<g id="Group 49">
<path id="Vector_60" d="M577.999 450H584.036C586.43 450 588.754 450.974 590.455 452.748L593.21 455.623C593.801 456.24 594.608 456.579 595.441 456.543L627.226 455.181C628.059 455.145 628.866 455.484 629.457 456.101L632.212 458.976C633.912 460.75 636.237 461.724 638.63 461.724H644.667" stroke="#343A40" stroke-width="2" stroke-linecap="round" stroke-linejoin="round"/>
<path id="Vector_61" d="M644.667 462L663.333 450V462H644.667Z" stroke="#343A40" stroke-width="2" stroke-linecap="round" stroke-linejoin="round"/>
</g>
<g id="Group 50">
<path id="Vector_62" d="M577.999 498H584.036C586.43 498 588.754 498.974 590.455 500.748L593.21 503.623C593.801 504.24 594.608 504.579 595.441 504.543L627.226 503.181C628.059 503.145 628.866 503.484 629.457 503.799L632.212 506.674C633.912 508.448 636.237 509.422 638.63 509.422H644.667" stroke="#343A40" stroke-width="2" stroke-linecap="round" stroke-linejoin="round"/>
<path id="Vector_63" d="M644.667 510L663.333 498V510H644.667Z" stroke="#343A40" stroke-width="2" stroke-linecap="round" stroke-linejoin="round"/>
</g>
<g id="Group 51">
<path id="Vector_64" d="M577.999 546H584.036C586.43 546 588.754 546.974 590.455 548.748L593.21 551.623C593.801 552.24 594.608 552.579 595.441 552.543L627.226 551.181C628.059 551.145 628.866 551.484 629.457 551.799L632.212 554.674C633.912 556.448 636.237 557.422 638.63 557.422H644.667" stroke="#343A40" stroke-width="2" stroke-linecap="round" stroke-linejoin="round"/>
<path id="Vector_65" d="M644.667 558L663.333 546V558H644.667Z" stroke="#343A40" stroke-width="2" stroke-linecap="round" stroke-linejoin="round"/>
</g>
</g>
</g>
</g>
<defs>
<linearGradient id="paint0_linear_13_854" x1="240" y1="200" x2="560" y2="200" gradientUnits="userSpaceOnUse">
<stop stop-color="#4481EB"/>
<stop offset="1" stop-color="#04BEFE"/>
</linearGradient>
<linearGradient id="paint1_linear_13_854" x1="592" y1="200" x2="912" y2="200" gradientUnits="userSpaceOnUse">
<stop stop-color="#FF9800"/>
<stop offset="1" stop-color="#FFC107"/>
</linearGradient>
<linearGradient id="paint2_linear_13_854" x1="944" y1="200" x2="1264" y2="200" gradientUnits="userSpaceOnUse">
<stop stop-color="#00D2FF"/>
<stop offset="1" stop-color="#3A7BD5"/>
</linearGradient>
<linearGradient id="paint3_linear_13_854" x1="1296" y1="200" x2="1616" y2="200" gradientUnits="userSpaceOnUse">
<stop stop-color="#FF5E62"/>
<stop offset="1" stop-color="#FF9966"/>
</linearGradient>
</defs>
</svg>